<svg aria-hidden="true" style="position: absolute; width: 0; height: 0; overflow: hidden;" version="1.1" xmlns="http://www.w3.org/2000/svg" xmlns:xlink="http://www.w3.org/1999/xlink">
<defs>
<symbol id="icon-blank-page" viewBox="0 0 27 32">
<title>blank-page</title>
<path fill="#ff4181" style="fill: var(--color1, #ff4181)" d="M27.147 8.645h-18.502v23.355h18.502v-23.355z"></path>
<path fill="#ff755c" style="fill: var(--color2, #ff755c)" d="M24.265 5.763h-18.502v23.355h18.502v-23.355z"></path>
<path fill="#ff9356" style="fill: var(--color3, #ff9356)" d="M21.384 2.881h-18.502v23.355h18.502v-23.355z"></path>
<path fill="#ffce47" style="fill: var(--color4, #ffce47)" d="M18.502 23.355h-18.502v-23.355h12.891l5.611 5.611v17.744z"></path>
<path fill="#ffebb4" style="fill: var(--color5, #ffebb4)" d="M12.891 0v5.611h5.611l-5.611-5.611z"></path>
</symbol>
<symbol id="icon-e-reader" viewBox="0 0 24 32">
<title>e-reader</title>
<path fill="#9ad7ff" style="fill: var(--color6, #9ad7ff)" d="M1.231 28.519v2.696c0.078 0.028 0.162 0.045 0.25 0.045h20.37v-2.741l-10.31-0.741-10.31 0.741z"></path>
<path fill="#c2e7ff" style="fill: var(--color7, #c2e7ff)" d="M21.852 25.778h-20.37c-0.088 0-0.172 0.016-0.25 0.045v2.696h20.62v-2.741z"></path>
<path fill="#4eb9ff" style="fill: var(--color8, #4eb9ff)" d="M3.482 28.518c0-1.346-0.971-2.465-2.25-2.696-0.285 0.103-0.491 0.377-0.491 0.696v4c0 0.32 0.206 0.593 0.491 0.696 1.279-0.231 2.25-1.35 2.25-2.696z"></path>
<path fill="#ffc0d5" style="fill: var(--color9, #ffc0d5)" d="M1.111 0c-0.614 0-1.111 0.497-1.111 1.111v25.407l5.185-0.741 2.963-12.889-2.963-12.889h-4.074z"></path>
<path fill="#ff755c" style="fill: var(--color2, #ff755c)" d="M21.852 1.482l-4.148-1.482h-12.519v25.778h15.926l2.222-6.371v-13.778l-1.482-4.148z"></path>
<path fill="#ffc0d5" style="fill: var(--color9, #ffc0d5)" d="M17.519 13.273h-6.519c-0.409 0-0.741-0.332-0.741-0.741s0.332-0.741 0.741-0.741h6.519c0.409 0 0.741 0.332 0.741 0.741s-0.332 0.741-0.741 0.741z"></path>
<path fill="#ffc0d5" style="fill: var(--color9, #ffc0d5)" d="M18.704 10.31h-8.889c-0.409 0-0.741-0.332-0.741-0.741s0.332-0.741 0.741-0.741h8.889c0.409 0 0.741 0.332 0.741 0.741s-0.332 0.741-0.741 0.741z"></path>
<path fill="#ffce47" style="fill: var(--color4, #ffce47)" d="M23.333 25.778l-5.63-0.741 5.63-5.63v6.37z"></path>
<path fill="#ffce47" style="fill: var(--color4, #ffce47)" d="M23.333 0v5.63l-5.63-5.63h5.63z"></path>
<path fill="#ff4181" style="fill: var(--color1, #ff4181)" d="M22.593 30.518h-21.111v-4h21.111c0.409 0 0.741-0.332 0.741-0.741s-0.332-0.741-0.741-0.741h-21.111c-0.817 0-1.482 0.665-1.482 1.482v4c0 0.817 0.665 1.481 1.482 1.481h21.111c0.409 0 0.741-0.332 0.741-0.741s-0.332-0.741-0.741-0.741z"></path>
</symbol>
<symbol id="icon-facebook" viewBox="0 0 19 32">
<title>facebook</title>
<path fill="none" stroke="#3d76b9" style="stroke: var(--color10, #3d76b9)" stroke-linejoin="round" stroke-linecap="round" stroke-miterlimit="4" stroke-width="2.9091" d="M17.455 1.455h-4.364c-4.017 0-7.273 3.256-7.273 7.273v4.364h-4.364v5.818h4.364v11.636h5.818v-11.636h4.364l1.455-5.818h-5.818v-4.364c0-0.803 0.651-1.455 1.455-1.455h4.364v-5.818z"></path>
</symbol>
<symbol id="icon-Group-21" viewBox="0 0 32 32">
<title>Group-21</title>
<path fill="#fff" style="fill: var(--color11, #fff)" d="M32 16c0 8.837-7.163 16-16 16s-16-7.163-16-16c0-8.837 7.163-16 16-16s16 7.163 16 16z"></path>
<path fill="none" stroke="#3a4047" style="stroke: var(--color12, #3a4047)" stroke-linejoin="round" stroke-linecap="round" stroke-miterlimit="4" stroke-width="3.2" d="M22.4 14.4l-6.4 6.4-6.4-6.4"></path>
</symbol>
<symbol id="icon-image-2" viewBox="0 0 32 32">
<title>image-2</title>
<path d="M0 0h32v32h-32v-32z"></path>
</symbol>
<symbol id="icon-image-3" viewBox="0 0 32 32">
<title>image-3</title>
<path d="M0 0h32v32h-32v-32z"></path>
</symbol>
<symbol id="icon-image" viewBox="0 0 32 32">
<title>image</title>
<path d="M0 0h32v32h-32v-32z"></path>
</symbol>
<symbol id="icon-Logo" viewBox="0 0 107 32">
<title>Logo</title>
<path fill="#3a4047" style="fill: var(--color12, #3a4047)" d="M35.78 26.182c0.835 0 1.228-0.549 1.228-1.128 0-0.536-0.343-0.948-0.792-1.016 0.405-0.087 0.711-0.436 0.711-0.954 0-0.486-0.374-1.060-1.234-1.060h-2.525v4.158h2.612zM35.399 23.557h-0.972v-0.486h0.972c0.131 0 0.249 0.093 0.249 0.237 0 0.15-0.118 0.249-0.249 0.249zM35.437 25.135h-1.010v-0.53h1.010c0.181 0 0.293 0.118 0.293 0.268 0 0.156-0.112 0.262-0.293 0.262zM40.351 26.182v-1.82c0-1.004-0.729-1.265-1.477-1.265-0.455 0-1.016 0.131-1.421 0.455l0.38 0.692c0.237-0.181 0.555-0.293 0.835-0.293 0.368 0 0.561 0.162 0.561 0.374v0.312c-0.162-0.206-0.517-0.33-0.91-0.33-0.449 0-1.035 0.212-1.035 0.96 0 0.686 0.586 0.991 1.035 0.991 0.374 0 0.742-0.15 0.91-0.362v0.287h1.122zM38.786 25.527c-0.187 0-0.393-0.056-0.393-0.243s0.206-0.249 0.393-0.249c0.175 0 0.368 0.056 0.443 0.162v0.168c-0.075 0.106-0.268 0.162-0.443 0.162zM44.812 23.171v2.038h-0.798v-2.038h-1.122v2.038h-0.798v-2.038h-1.122v3.011h4.962v-3.011h-1.122zM49.421 26.182v-1.82c0-1.004-0.729-1.265-1.477-1.265-0.455 0-1.016 0.131-1.421 0.455l0.38 0.692c0.237-0.181 0.555-0.293 0.835-0.293 0.368 0 0.561 0.162 0.561 0.374v0.312c-0.162-0.206-0.517-0.33-0.91-0.33-0.449 0-1.035 0.212-1.035 0.96 0 0.686 0.586 0.991 1.035 0.991 0.374 0 0.742-0.15 0.91-0.362v0.287h1.122zM47.857 25.527c-0.187 0-0.393-0.056-0.393-0.243s0.206-0.249 0.393-0.249c0.175 0 0.368 0.056 0.443 0.162v0.168c-0.075 0.106-0.268 0.162-0.443 0.162zM53.339 26.182v-2.038h0.792v-0.972h-2.718v0.972h0.804v2.038h1.122zM55.607 26.182l0.966-1.428v1.428h1.122v-3.011h-1.135l-0.904 1.34v-1.34h-1.122v3.011h1.072zM61.482 26.182v-3.011h-3.161v3.011h1.122v-2.038h0.916v2.038h1.122zM63.591 26.257c1.072 0 1.696-0.742 1.696-1.583s-0.623-1.577-1.696-1.577c-1.066 0-1.689 0.736-1.689 1.577s0.623 1.583 1.689 1.583zM63.591 25.265c-0.343 0-0.536-0.256-0.536-0.592 0-0.33 0.193-0.586 0.536-0.586 0.349 0 0.542 0.256 0.542 0.586 0 0.337-0.193 0.592-0.542 0.592zM68.149 23.171h-2.444v3.011h1.122v-2.038h1.322v-0.972zM70.525 26.257c0.748 0 1.322-0.549 1.322-1.583 0-1.029-0.573-1.577-1.322-1.577-0.312 0-0.605 0.106-0.848 0.393v-0.318h-1.122v4.158h1.122v-1.465c0.249 0.287 0.536 0.393 0.848 0.393zM70.138 25.265c-0.143 0-0.362-0.081-0.461-0.206v-0.767c0.106-0.131 0.318-0.206 0.461-0.206 0.299 0 0.561 0.212 0.561 0.586 0 0.38-0.262 0.592-0.561 0.592zM75.124 26.182v-1.82c0-1.004-0.729-1.265-1.477-1.265-0.455 0-1.016 0.131-1.421 0.455l0.38 0.692c0.237-0.181 0.555-0.293 0.835-0.293 0.368 0 0.561 0.162 0.561 0.374v0.312c-0.162-0.206-0.517-0.33-0.91-0.33-0.449 0-1.035 0.212-1.035 0.96 0 0.686 0.586 0.991 1.035 0.991 0.374 0 0.742-0.15 0.91-0.362v0.287h1.122zM73.559 25.527c-0.187 0-0.393-0.056-0.393-0.243s0.206-0.249 0.393-0.249c0.175 0 0.368 0.056 0.443 0.162v0.168c-0.075 0.106-0.268 0.162-0.443 0.162zM76.761 23.096c-0.692 0-1.222 0.549-1.222 1.583 0 1.029 0.53 1.577 1.222 1.577 0.293 0 0.561-0.106 0.785-0.393v1.465h1.122v-1.465c0.231 0.287 0.492 0.393 0.785 0.393 0.692 0 1.222-0.549 1.222-1.583 0-1.029-0.53-1.577-1.222-1.577-0.293 0-0.561 0.106-0.785 0.393v-1.465h-1.122v1.465c-0.231-0.287-0.492-0.393-0.785-0.393zM77.147 24.087c0.125 0 0.312 0.081 0.399 0.206v0.767c-0.094 0.131-0.274 0.206-0.399 0.206-0.256 0-0.48-0.212-0.48-0.586 0-0.38 0.224-0.592 0.48-0.592zM79.067 25.265c-0.125 0-0.312-0.081-0.399-0.206v-0.767c0.094-0.131 0.274-0.206 0.399-0.206 0.256 0 0.48 0.212 0.48 0.586 0 0.38-0.224 0.592-0.48 0.592zM82.168 26.182l0.966-1.428v1.428h1.122v-3.011h-1.135l-0.904 1.34v-1.34h-1.122v3.011h1.072zM86.060 26.182l0.418-0.898h0.443v0.898h1.122v-3.011h-2.070c-0.723 0-1.153 0.486-1.153 1.053 0 0.58 0.362 0.848 0.586 0.948l-0.592 1.010h1.247zM86.185 24.405c-0.137 0-0.231-0.075-0.231-0.181 0-0.1 0.094-0.175 0.231-0.175h0.736v0.355h-0.736z"></path>
<path fill="#1ab0ce" style="fill: var(--color13, #1ab0ce)" d="M37.107 18.286v-4.189h3.072c3.112 0 4.788-2.075 4.788-4.548 0-2.494-1.676-4.568-4.788-4.568h-7.102v13.305h4.029zM39.66 10.586h-2.553v-2.095h2.553c0.678 0 1.217 0.339 1.217 1.057 0 0.698-0.539 1.037-1.217 1.037zM58.194 18.286l-2.414-4.708c1.057-0.519 2.394-1.735 2.394-4.029 0-2.494-1.676-4.568-4.788-4.568h-7.102v13.305h4.029v-4.189h1.456l1.835 4.189h4.588zM52.768 10.586h-2.454v-2.095h2.454c0.678 0 1.317 0.319 1.317 1.037 0 0.738-0.638 1.057-1.317 1.057zM63.834 18.286v-13.305h-4.029v13.305h4.029zM78.787 18.286v-13.305h-4.029v6.304l-4.628-6.304h-4.149v13.305h4.029v-6.742l4.907 6.742h3.87zM87.823 18.286v-9.794h3.551v-3.511h-11.151v3.511h3.571v9.794h4.029zM102.898 18.286v-3.511h-6.064v-1.456h5.925v-3.511h-5.925v-1.317h6.064v-3.511h-10.094v13.305h10.094z"></path>
<path fill="#4fc2e9" style="fill: var(--color14, #4fc2e9)" d="M9.281 16.813c0-5.174 4.156-9.37 9.282-9.37s9.282 4.195 9.282 9.37c0 5.174-4.155 9.369-9.282 9.369s-9.282-4.195-9.282-9.369z"></path>
<path fill="#ec87c0" style="fill: var(--color15, #ec87c0)" d="M0 16.813c0-5.174 4.155-9.37 9.281-9.37s9.282 4.195 9.282 9.37c0 5.174-4.155 9.369-9.282 9.369s-9.281-4.195-9.281-9.369z"></path>
<path fill="#5d9cec" style="fill: var(--color16, #5d9cec)" d="M13.922 8.697c-2.774 1.62-4.641 4.648-4.641 8.116s1.867 6.495 4.641 8.115c2.774-1.62 4.64-4.648 4.64-8.115s-1.867-6.495-4.64-8.116z"></path>
<path fill="#ffce54" style="fill: var(--color17, #ffce54)" d="M13.922 19.154c-5.126 0-9.282-4.195-9.282-9.369s4.155-9.37 9.282-9.37c5.126 0 9.281 4.195 9.281 9.37s-4.155 9.369-9.281 9.369z"></path>
<path fill="#a0d468" style="fill: var(--color18, #a0d468)" d="M9.281 16.813c0 0.381 0.024 0.757 0.067 1.127 1.35 0.774 2.911 1.215 4.574 1.215 5.126 0 9.281-4.195 9.281-9.369 0-0.382-0.023-0.758-0.066-1.127-1.35-0.773-2.911-1.216-4.574-1.216-5.126-0-9.282 4.195-9.282 9.37z"></path>
<path fill="#ed5564" style="fill: var(--color19, #ed5564)" d="M9.281 7.443c-1.663 0-3.223 0.442-4.573 1.216-0.044 0.369-0.067 0.745-0.067 1.127 0 5.174 4.155 9.369 9.282 9.369 1.663 0 3.224-0.441 4.573-1.215 0.044-0.371 0.067-0.746 0.067-1.127 0-5.174-4.155-9.37-9.282-9.37z"></path>
<path fill="#434a54" style="fill: var(--color20, #434a54)" d="M14.185 19.151c0.070-0.002 0.139-0.005 0.209-0.009 0.008 0 0.015 0 0.024-0.002 0.063-0.003 0.125-0.007 0.188-0.012 0.017 0 0.035-0.002 0.052-0.003 0.067-0.005 0.134-0.010 0.201-0.017 0.014-0.002 0.028-0.003 0.042-0.005 0.057-0.007 0.113-0.012 0.169-0.019 0.018-0.003 0.036-0.005 0.054-0.007 0.065-0.009 0.129-0.019 0.193-0.027 0.019-0.003 0.038-0.007 0.057-0.009 0.051-0.009 0.101-0.017 0.151-0.026 0.020-0.003 0.039-0.007 0.059-0.010 0.061-0.012 0.122-0.024 0.183-0.036 0.023-0.003 0.046-0.009 0.069-0.014 0.046-0.010 0.091-0.021 0.136-0.031 0.021-0.003 0.042-0.009 0.064-0.014 0.058-0.014 0.115-0.027 0.172-0.043 0.027-0.007 0.054-0.014 0.081-0.021 0.040-0.010 0.080-0.022 0.12-0.033 0.037-0.010 0.074-0.021 0.11-0.033 0.041-0.010 0.081-0.022 0.121-0.036 0.030-0.009 0.060-0.019 0.090-0.027 0.034-0.012 0.069-0.022 0.103-0.034 0.047-0.015 0.093-0.031 0.14-0.048 0.030-0.010 0.059-0.021 0.088-0.031 0.033-0.012 0.066-0.024 0.099-0.036 0.028-0.010 0.055-0.021 0.082-0.033 0.054-0.021 0.109-0.041 0.163-0.064 0.022-0.010 0.045-0.019 0.067-0.029 0.036-0.014 0.071-0.029 0.106-0.045 0.014-0.007 0.029-0.012 0.043-0.019 0.066-0.029 0.133-0.058 0.198-0.089 0.019-0.009 0.037-0.017 0.055-0.026 0.116-0.057 0.232-0.115 0.346-0.175 0.015-0.007 0.031-0.015 0.046-0.024 0.076-0.041 0.152-0.082 0.228-0.125 0.001-0.002 0.002-0.002 0.003-0.002 0.044-0.371 0.067-0.746 0.067-1.127 0-3.468-1.867-6.495-4.64-8.116-2.774 1.62-4.641 4.648-4.641 8.116 0 0.381 0.024 0.757 0.067 1.127 0.003 0.002 0.008 0.003 0.011 0.005 0.072 0.041 0.145 0.082 0.219 0.122 0.015 0.009 0.031 0.017 0.047 0.026 0.114 0.060 0.229 0.117 0.345 0.172 0.019 0.010 0.037 0.019 0.056 0.027 0.064 0.029 0.128 0.058 0.193 0.087 0.016 0.007 0.032 0.014 0.048 0.021 0.035 0.015 0.070 0.031 0.105 0.045 0.023 0.010 0.046 0.019 0.069 0.029 0.053 0.022 0.107 0.043 0.161 0.064 0.028 0.010 0.055 0.022 0.083 0.033 0.033 0.012 0.066 0.024 0.099 0.036 0.029 0.010 0.059 0.021 0.088 0.031 0.046 0.017 0.093 0.033 0.139 0.048 0.034 0.012 0.069 0.022 0.104 0.034 0.030 0.010 0.059 0.019 0.090 0.027 0.040 0.014 0.080 0.026 0.121 0.038 0.037 0.010 0.073 0.021 0.11 0.031 0.040 0.010 0.080 0.022 0.121 0.033 0.026 0.007 0.054 0.014 0.081 0.021 0.056 0.015 0.114 0.029 0.171 0.043 0.021 0.005 0.042 0.010 0.064 0.014 0.046 0.010 0.091 0.021 0.136 0.031 0.023 0.005 0.047 0.010 0.070 0.014 0.060 0.012 0.122 0.024 0.182 0.036 0.020 0.003 0.039 0.007 0.059 0.010 0.050 0.009 0.101 0.017 0.152 0.026 0.019 0.002 0.037 0.005 0.056 0.009 0.065 0.009 0.128 0.019 0.193 0.027 0.018 0.002 0.037 0.003 0.054 0.007 0.056 0.007 0.112 0.012 0.168 0.019 0.014 0.002 0.028 0.003 0.042 0.005 0.067 0.007 0.133 0.012 0.201 0.017 0.017 0.002 0.034 0.003 0.051 0.003 0.063 0.005 0.126 0.009 0.189 0.012 0.008 0.002 0.016 0.002 0.024 0.002 0.070 0.003 0.139 0.007 0.209 0.009 0.017 0 0.033 0 0.050 0.002 0.071 0.002 0.142 0.002 0.213 0.002s0.142 0 0.212-0.002c0.017-0.002 0.034-0.002 0.051-0.002z"></path>
</symbol>
<symbol id="icon-phone-2" viewBox="0 0 32 32">
<title>phone-2</title>
<path fill="none" stroke="#fff" style="stroke: var(--color11, #fff)" stroke-linejoin="round" stroke-linecap="round" stroke-miterlimit="4" stroke-width="2.56" d="M30.719 23.321v4.432c0.003 0.832-0.345 1.627-0.959 2.189s-1.438 0.84-2.268 0.765c-4.555-0.494-8.93-2.047-12.775-4.535-3.576-2.268-6.609-5.294-8.881-8.864-2.502-3.854-4.058-8.242-4.544-12.808-0.075-0.826 0.202-1.645 0.762-2.258s1.353-0.962 2.184-0.963h4.441c1.486-0.015 2.752 1.072 2.96 2.541 0.187 1.418 0.535 2.811 1.036 4.151 0.407 1.080 0.147 2.297-0.666 3.117l-1.88 1.876c2.107 3.698 5.176 6.761 8.881 8.864l1.88-1.876c0.822-0.811 2.041-1.071 3.123-0.665 1.343 0.5 2.738 0.847 4.16 1.034 1.488 0.21 2.583 1.499 2.546 2.999z"></path>
</symbol>
<symbol id="icon-phone" viewBox="0 0 32 32">
<title>phone</title>
<path stroke-linejoin="round" stroke-linecap="round" stroke-miterlimit="4" stroke-width="2.9091" d="M30.383 23.157v4.364c0.003 0.819-0.339 1.602-0.942 2.155s-1.413 0.827-2.229 0.754c-4.476-0.486-8.775-2.016-12.553-4.465-3.514-2.233-6.494-5.213-8.727-8.727-2.458-3.795-3.988-8.115-4.465-12.611-0.073-0.813 0.198-1.62 0.749-2.223s1.329-0.947 2.146-0.948h4.364c1.46-0.014 2.705 1.056 2.909 2.502 0.184 1.396 0.526 2.768 1.018 4.087 0.4 1.063 0.144 2.262-0.655 3.069l-1.847 1.847c2.071 3.641 5.086 6.657 8.727 8.727l1.847-1.847c0.808-0.799 2.006-1.054 3.069-0.655 1.32 0.492 2.691 0.834 4.087 1.018 1.463 0.206 2.538 1.476 2.502 2.953z"></path>
</symbol>
<symbol id="icon-road-map" viewBox="0 0 32 32">
<title>road-map</title>
<path fill="#85c250" style="fill: var(--color21, #85c250)" d="M10.666 3.033l2.275 14.483-2.275 14.483-10.666-3.033v-28.967l10.666 3.033z"></path>
<path fill="#85c250" style="fill: var(--color21, #85c250)" d="M32 3.033v28.967l-10.667-3.033-1.517-14.483 1.517-14.483 10.667 3.033z"></path>
<path fill="#c9d467" style="fill: var(--color22, #c9d467)" d="M21.333 0v28.967l-10.667 3.033v-28.967l10.667-3.033z"></path>
<path fill="#174461" style="fill: var(--color23, #174461)" d="M7.633 28.104c-0.069 0-0.138-0.009-0.208-0.029l-4.6-1.308c-0.403-0.115-0.636-0.534-0.522-0.937s0.534-0.637 0.937-0.522l4.6 1.308c0.403 0.115 0.637 0.534 0.522 0.937-0.095 0.333-0.399 0.551-0.729 0.551z"></path>
<path fill="#174461" style="fill: var(--color23, #174461)" d="M7.633 24.313c-0.069 0-0.138-0.009-0.208-0.029l-4.6-1.308c-0.403-0.115-0.636-0.534-0.522-0.937s0.534-0.637 0.937-0.522l4.6 1.308c0.403 0.115 0.637 0.534 0.522 0.937-0.095 0.333-0.399 0.551-0.729 0.551z"></path>
<path fill="#174461" style="fill: var(--color23, #174461)" d="M7.633 20.521c-0.069 0-0.138-0.009-0.208-0.029l-4.6-1.308c-0.403-0.115-0.636-0.534-0.522-0.937s0.534-0.637 0.937-0.522l4.6 1.308c0.403 0.115 0.637 0.534 0.522 0.937-0.095 0.334-0.399 0.551-0.729 0.551z"></path>
<path fill="#174461" style="fill: var(--color23, #174461)" d="M3.033 4.654v10.009l4.6 1.308v-10.009l-4.6-1.308z"></path>
<path fill="#fff" style="fill: var(--color11, #fff)" d="M13.699 6.721c-0.33 0-0.634-0.218-0.729-0.551-0.115-0.403 0.119-0.822 0.522-0.937l4.6-1.308c0.403-0.115 0.822 0.119 0.937 0.522s-0.119 0.822-0.522 0.937l-4.601 1.308c-0.069 0.020-0.139 0.029-0.208 0.029z"></path>
<path fill="#fff" style="fill: var(--color11, #fff)" d="M13.699 28.104c-0.33 0-0.634-0.218-0.729-0.551-0.115-0.403 0.119-0.822 0.522-0.937l4.6-1.308c0.403-0.115 0.822 0.119 0.937 0.522s-0.119 0.822-0.522 0.937l-4.601 1.308c-0.069 0.020-0.139 0.029-0.208 0.029z"></path>
<path fill="#fff" style="fill: var(--color11, #fff)" d="M13.699 24.313c-0.33 0-0.634-0.218-0.729-0.551-0.115-0.403 0.119-0.822 0.522-0.937l4.6-1.308c0.403-0.115 0.822 0.119 0.937 0.522s-0.119 0.822-0.522 0.937l-4.601 1.308c-0.069 0.020-0.139 0.029-0.208 0.029z"></path>
<path fill="#fff" style="fill: var(--color11, #fff)" d="M13.699 20.522c-0.33 0-0.634-0.218-0.729-0.551-0.115-0.403 0.119-0.822 0.522-0.937l4.6-1.308c0.403-0.114 0.822 0.119 0.937 0.522s-0.119 0.822-0.522 0.937l-4.601 1.308c-0.069 0.020-0.139 0.029-0.208 0.029z"></path>
<path fill="#fff" style="fill: var(--color11, #fff)" d="M13.699 16.73c-0.33 0-0.634-0.218-0.729-0.551-0.115-0.403 0.119-0.822 0.522-0.937l4.6-1.308c0.403-0.115 0.822 0.119 0.937 0.522s-0.119 0.822-0.522 0.937l-4.601 1.308c-0.069 0.020-0.139 0.029-0.208 0.029z"></path>
<path fill="#174461" style="fill: var(--color23, #174461)" d="M28.967 6.721c-0.069 0-0.138-0.009-0.208-0.029l-4.601-1.308c-0.403-0.115-0.637-0.534-0.522-0.937s0.534-0.636 0.937-0.522l4.6 1.308c0.403 0.115 0.637 0.534 0.522 0.937-0.095 0.334-0.399 0.551-0.729 0.551z"></path>
<path fill="#174461" style="fill: var(--color23, #174461)" d="M28.967 10.512c-0.069 0-0.138-0.009-0.208-0.029l-4.601-1.308c-0.403-0.115-0.637-0.534-0.522-0.937s0.534-0.636 0.937-0.522l4.6 1.308c0.403 0.115 0.637 0.534 0.522 0.937-0.095 0.333-0.399 0.551-0.729 0.551z"></path>
<path fill="#174461" style="fill: var(--color23, #174461)" d="M28.967 14.304c-0.069 0-0.138-0.009-0.208-0.029l-4.601-1.308c-0.403-0.115-0.637-0.534-0.522-0.937s0.534-0.636 0.937-0.522l4.6 1.308c0.403 0.115 0.637 0.534 0.522 0.937-0.095 0.334-0.399 0.551-0.729 0.551z"></path>
<path fill="#174461" style="fill: var(--color23, #174461)" d="M24.366 16.028v10.009l4.601 1.308v-10.010l-4.601-1.308z"></path>
</symbol>
<symbol id="icon-search" viewBox="0 0 32 32">
<title>search</title>
<path stroke-linejoin="round" stroke-linecap="round" stroke-miterlimit="4" stroke-width="3.2" d="M13.6 25.6c6.627 0 12-5.373 12-12s-5.373-12-12-12c-6.627 0-12 5.373-12 12s5.373 12 12 12z"></path>
<path stroke-linejoin="round" stroke-linecap="round" stroke-miterlimit="4" stroke-width="3.2" d="M30.4 30.4l-8.32-8.32"></path>
</symbol>
<symbol id="icon-shopping-cart" viewBox="0 0 32 32">
<title>shopping-cart</title>
<path fill="none" stroke="#1ab0ce" style="stroke: var(--color13, #1ab0ce)" stroke-linejoin="round" stroke-linecap="round" stroke-miterlimit="4" stroke-width="2.6667" d="M10.667 30.667c1.473 0 2.667-1.194 2.667-2.667s-1.194-2.667-2.667-2.667c-1.473 0-2.667 1.194-2.667 2.667s1.194 2.667 2.667 2.667z"></path>
<path fill="none" stroke="#1ab0ce" style="stroke: var(--color13, #1ab0ce)" stroke-linejoin="round" stroke-linecap="round" stroke-miterlimit="4" stroke-width="2.6667" d="M26.667 30.667c1.473 0 2.667-1.194 2.667-2.667s-1.194-2.667-2.667-2.667c-1.473 0-2.667 1.194-2.667 2.667s1.194 2.667 2.667 2.667z"></path>
<path fill="none" stroke="#1ab0ce" style="stroke: var(--color13, #1ab0ce)" stroke-linejoin="round" stroke-linecap="round" stroke-miterlimit="4" stroke-width="2.6667" d="M7.56 8h23.107l-2.24 11.187c-0.252 1.267-1.375 2.171-2.667 2.147h-14.093c-1.347 0.011-2.492-0.984-2.667-2.32l-2.027-15.36c-0.174-1.326-1.303-2.318-2.64-2.32h-3"></path>
</symbol>
<symbol id="icon-Site-Developing" viewBox="0 0 306 32">
<title>Site-Developing</title>
<path fill="#000" style="fill: var(--color24, #000)" d="M0 0h34v32h-34v-32z"></path>
<path fill="#3a4047" style="fill: var(--color12, #3a4047)" d="M37.54 8.6h7.040v1.54h-5.060v13.86h-1.98v-15.4zM45.463 24.22c-0.367 0-0.682-0.037-0.946-0.11-0.147-0.029-0.271-0.066-0.374-0.11v-0.99c0.308 0 0.587-0.059 0.836-0.176s0.469-0.315 0.66-0.594c0.191-0.293 0.345-0.667 0.462-1.122 0.132-0.469 0.213-1.049 0.242-1.738l0.55-10.78h7.37v15.4h-1.98v-13.86h-3.476l-0.484 9.24c-0.044 0.88-0.154 1.628-0.33 2.244-0.161 0.616-0.374 1.115-0.638 1.496-0.249 0.381-0.543 0.66-0.88 0.836-0.323 0.176-0.66 0.264-1.012 0.264zM63.289 16.19v-6.38h-1.54c-0.997 0-1.723 0.242-2.178 0.726s-0.682 1.305-0.682 2.464c0 1.159 0.227 1.98 0.682 2.464s1.181 0.726 2.178 0.726h1.54zM59.879 17.18c-0.352-0.059-0.711-0.183-1.078-0.374-0.352-0.191-0.667-0.455-0.946-0.792-0.279-0.352-0.506-0.777-0.682-1.276s-0.264-1.078-0.264-1.738c0-0.821 0.088-1.525 0.264-2.112s0.455-1.063 0.836-1.43c0.381-0.381 0.88-0.653 1.496-0.814 0.616-0.176 1.364-0.264 2.244-0.264 0.66 0 1.269 0.037 1.826 0.11 0.572 0.059 1.137 0.169 1.694 0.33v15.18h-1.98v-6.27h-0.88c-0.44 0-0.851 0.139-1.232 0.418s-0.667 0.799-0.858 1.562l-0.44 1.87c-0.44 1.76-1.283 2.64-2.53 2.64-0.337 0-0.638-0.037-0.902-0.11-0.147-0.029-0.286-0.066-0.418-0.11v-0.99c0.557 0 0.961-0.125 1.21-0.374 0.249-0.264 0.433-0.616 0.55-1.056l0.44-1.87c0.161-0.719 0.381-1.276 0.66-1.672s0.609-0.653 0.99-0.77v-0.088zM76.929 8.6v15.4h-1.98v-7.040h-4.62v7.040h-1.98v-15.4h1.98v6.82h4.62v-6.82h1.98zM81.995 22.46h5.5v1.54h-7.48v-15.4h7.48v1.54h-5.5v5.060h4.84v1.54h-4.84v5.72zM89.919 24v-15.4h1.98v13.86h4.4v-13.86h1.98v13.86h1.43v4.84h-1.21c-0.337-0.88-0.557-1.98-0.66-3.3h-7.92zM106.42 17.070h12.76v1.54h-12.76v-1.54zM130.392 17.95c0.499 0 0.924-0.059 1.276-0.176 0.367-0.132 0.667-0.352 0.902-0.66s0.403-0.726 0.506-1.254c0.117-0.528 0.176-1.188 0.176-1.98s-0.059-1.452-0.176-1.98c-0.103-0.528-0.271-0.946-0.506-1.254s-0.535-0.521-0.902-0.638c-0.352-0.132-0.777-0.198-1.276-0.198h-1.54v8.14h1.54zM128.852 24h-1.98v-15.18c0.557-0.161 1.115-0.271 1.672-0.33 0.572-0.073 1.188-0.11 1.848-0.11 0.88 0 1.628 0.095 2.244 0.286 0.616 0.176 1.115 0.477 1.496 0.902s0.66 0.99 0.836 1.694c0.176 0.704 0.264 1.577 0.264 2.618 0 1.071-0.088 1.965-0.264 2.684-0.161 0.719-0.418 1.298-0.77 1.738-0.337 0.425-0.77 0.733-1.298 0.924-0.513 0.176-1.129 0.264-1.848 0.264-0.337 0-0.719-0.022-1.144-0.066s-0.777-0.095-1.056-0.154v4.73zM138.861 20.040l-0.99 3.96h-1.98l3.74-15.4h2.86l3.74 15.4h-1.98l-0.99-3.96h-4.4zM141.105 10.8h-0.088l-1.826 7.7h3.74l-1.826-7.7zM150.076 22.79c1.1 0 1.885-0.227 2.354-0.682 0.484-0.469 0.726-1.232 0.726-2.288 0-1.1-0.242-1.885-0.726-2.354-0.469-0.484-1.254-0.726-2.354-0.726h-1.54v-1.54h1.32c0.997 0 1.723-0.22 2.178-0.66 0.455-0.455 0.682-1.151 0.682-2.090 0-0.88-0.227-1.54-0.682-1.98s-1.181-0.66-2.178-0.66h-2.64v-0.99c0.161-0.059 0.359-0.11 0.594-0.154 0.235-0.059 0.484-0.11 0.748-0.154s0.528-0.073 0.792-0.088c0.264-0.029 0.506-0.044 0.726-0.044 1.657 0 2.838 0.337 3.542 1.012 0.719 0.66 1.078 1.679 1.078 3.058 0 0.88-0.169 1.584-0.506 2.112-0.323 0.528-0.814 0.946-1.474 1.254v0.088c0.88 0.249 1.503 0.733 1.87 1.452 0.367 0.704 0.55 1.525 0.55 2.464 0 0.777-0.088 1.445-0.264 2.002-0.176 0.543-0.462 0.997-0.858 1.364-0.396 0.352-0.917 0.616-1.562 0.792-0.645 0.161-1.437 0.242-2.376 0.242-0.557 0-1.129-0.044-1.716-0.132-0.572-0.088-1.027-0.191-1.364-0.308v-0.99h3.080zM161.072 17.95c0.499 0 0.924-0.059 1.276-0.176 0.367-0.132 0.667-0.352 0.902-0.66s0.403-0.726 0.506-1.254c0.117-0.528 0.176-1.188 0.176-1.98s-0.059-1.452-0.176-1.98c-0.103-0.528-0.271-0.946-0.506-1.254s-0.535-0.521-0.902-0.638c-0.352-0.132-0.777-0.198-1.276-0.198h-1.54v8.14h1.54zM159.532 24h-1.98v-15.18c0.557-0.161 1.115-0.271 1.672-0.33 0.572-0.073 1.188-0.11 1.848-0.11 0.88 0 1.628 0.095 2.244 0.286 0.616 0.176 1.115 0.477 1.496 0.902s0.66 0.99 0.836 1.694 0.264 1.577 0.264 2.618c0 1.071-0.088 1.965-0.264 2.684-0.161 0.719-0.418 1.298-0.77 1.738-0.337 0.425-0.77 0.733-1.298 0.924-0.513 0.176-1.129 0.264-1.848 0.264-0.337 0-0.719-0.022-1.144-0.066s-0.777-0.095-1.056-0.154v4.73zM169.541 20.040l-0.99 3.96h-1.98l3.74-15.4h2.86l3.74 15.4h-1.98l-0.99-3.96h-4.4zM171.785 10.8h-0.088l-1.826 7.7h3.74l-1.826-7.7zM180.866 14.65h1.54c0.88 0 1.628 0.088 2.244 0.264s1.115 0.455 1.496 0.836c0.381 0.381 0.66 0.88 0.836 1.496s0.264 1.364 0.264 2.244c0 0.851-0.088 1.577-0.264 2.178s-0.455 1.093-0.836 1.474c-0.381 0.367-0.88 0.638-1.496 0.814s-1.364 0.264-2.244 0.264c-0.66 0-1.276-0.037-1.848-0.11-0.557-0.059-1.115-0.169-1.672-0.33v-15.18h7.7v1.54h-5.72v4.51zM180.866 16.19v6.6h1.54c0.997 0 1.723-0.242 2.178-0.726 0.455-0.499 0.682-1.357 0.682-2.574s-0.227-2.068-0.682-2.552c-0.455-0.499-1.181-0.748-2.178-0.748h-1.54zM193.961 8.38c0.748 0 1.408 0.125 1.98 0.374 0.587 0.249 1.085 0.675 1.496 1.276s0.719 1.415 0.924 2.442c0.22 1.012 0.33 2.288 0.33 3.828s-0.11 2.823-0.33 3.85c-0.205 1.012-0.513 1.819-0.924 2.42s-0.909 1.027-1.496 1.276c-0.572 0.249-1.232 0.374-1.98 0.374s-1.415-0.125-2.002-0.374c-0.572-0.249-1.063-0.675-1.474-1.276s-0.726-1.408-0.946-2.42c-0.205-1.027-0.308-2.31-0.308-3.85s0.103-2.816 0.308-3.828c0.22-1.027 0.535-1.841 0.946-2.442s0.902-1.027 1.474-1.276c0.587-0.249 1.254-0.374 2.002-0.374zM193.961 22.9c0.352 0 0.697-0.095 1.034-0.286s0.631-0.535 0.88-1.034c0.249-0.499 0.447-1.173 0.594-2.024 0.161-0.851 0.242-1.936 0.242-3.256s-0.081-2.405-0.242-3.256c-0.147-0.851-0.345-1.525-0.594-2.024s-0.543-0.843-0.88-1.034c-0.337-0.191-0.682-0.286-1.034-0.286s-0.697 0.095-1.034 0.286c-0.337 0.191-0.631 0.535-0.88 1.034s-0.455 1.173-0.616 2.024c-0.147 0.851-0.22 1.936-0.22 3.256s0.073 2.405 0.22 3.256c0.161 0.851 0.367 1.525 0.616 2.024s0.543 0.843 0.88 1.034c0.337 0.191 0.682 0.286 1.034 0.286zM199.587 8.6h9.021v1.54h-3.52v13.86h-1.98v-13.86h-3.521v-1.54zM215.090 16.014c0.278 0.073 0.528 0.169 0.748 0.286 0.234 0.117 0.44 0.279 0.616 0.484 0.19 0.205 0.352 0.469 0.484 0.792 0.146 0.308 0.264 0.689 0.352 1.144l0.55 2.86c0.074 0.381 0.242 0.719 0.506 1.012 0.278 0.279 0.696 0.418 1.254 0.418v0.99c-0.102 0.044-0.228 0.081-0.374 0.11-0.264 0.073-0.58 0.11-0.946 0.11-0.66 0-1.21-0.22-1.65-0.66-0.426-0.44-0.718-1.1-0.88-1.98l-0.55-2.86c-0.146-0.777-0.41-1.298-0.792-1.562-0.366-0.279-0.8-0.418-1.298-0.418h-0.77v7.26h-1.98v-15.4h1.98v6.6h0.77c0.382 0 0.74-0.139 1.078-0.418s0.602-0.799 0.792-1.562l0.55-2.2c0.44-1.76 1.284-2.64 2.53-2.64 0.19 0 0.366 0.015 0.528 0.044 0.162 0.015 0.3 0.037 0.418 0.066 0.146 0.044 0.272 0.081 0.374 0.11v0.99c-0.558 0-0.96 0.132-1.21 0.396-0.25 0.249-0.432 0.594-0.55 1.034l-0.55 2.2c-0.118 0.455-0.242 0.843-0.374 1.166-0.118 0.308-0.256 0.565-0.418 0.77s-0.338 0.367-0.528 0.484c-0.19 0.117-0.41 0.213-0.66 0.286v0.088zM223.122 20.040l-0.99 3.96h-1.98l3.74-15.4h2.86l3.74 15.4h-1.98l-0.99-3.96h-4.4zM225.366 10.8h-0.088l-1.826 7.7h3.74l-1.826-7.7zM242.368 24.22c-0.778 0-1.466-0.125-2.068-0.374-0.586-0.249-1.092-0.675-1.518-1.276-0.41-0.601-0.726-1.408-0.946-2.42-0.206-1.027-0.308-2.31-0.308-3.85s0.102-2.816 0.308-3.828c0.22-1.027 0.528-1.841 0.924-2.442s0.88-1.027 1.452-1.276c0.572-0.249 1.218-0.374 1.936-0.374 0.66 0 1.29 0.044 1.892 0.132s1.070 0.191 1.408 0.308v0.99h-2.86c-0.44 0-0.85 0.095-1.232 0.286-0.366 0.191-0.69 0.535-0.968 1.034-0.278 0.484-0.498 1.144-0.66 1.98-0.146 0.836-0.22 1.899-0.22 3.19s0.080 2.354 0.242 3.19c0.162 0.836 0.382 1.503 0.66 2.002 0.294 0.484 0.638 0.821 1.034 1.012 0.41 0.191 0.866 0.286 1.364 0.286h2.86v0.99c-0.338 0.117-0.806 0.22-1.408 0.308s-1.232 0.132-1.892 0.132zM249.398 20.040l-0.99 3.96h-1.98l3.74-15.4h2.86l3.74 15.4h-1.98l-0.99-3.96h-4.4zM251.642 10.8h-0.088l-1.826 7.7h3.74l-1.826-7.7zM265.564 12.56h-0.11l-4.51 11.44h-2.2v-15.4h1.98v11.44h0.11l4.4-11.44h2.31v15.4h-1.98v-11.44zM263.144 5.74c0.498 0 0.93-0.11 1.298-0.33 0.38-0.22 0.682-0.44 0.902-0.66l0.88 0.88c-0.28 0.499-0.682 0.902-1.21 1.21-0.528 0.293-1.152 0.44-1.87 0.44-0.72 0-1.342-0.147-1.87-0.44-0.528-0.308-0.932-0.711-1.21-1.21l0.88-0.88c0.22 0.22 0.512 0.44 0.88 0.66 0.38 0.22 0.82 0.33 1.32 0.33zM269.304 8.6h9.020v1.54h-3.52v13.86h-1.98v-13.86h-3.52v-1.54zM283.938 8.38c0.748 0 1.408 0.125 1.98 0.374 0.586 0.249 1.084 0.675 1.496 1.276 0.41 0.601 0.718 1.415 0.924 2.442 0.22 1.012 0.33 2.288 0.33 3.828s-0.11 2.823-0.33 3.85c-0.206 1.012-0.514 1.819-0.924 2.42-0.412 0.601-0.91 1.027-1.496 1.276-0.572 0.249-1.232 0.374-1.98 0.374s-1.416-0.125-2.002-0.374c-0.572-0.249-1.064-0.675-1.474-1.276-0.412-0.601-0.726-1.408-0.946-2.42-0.206-1.027-0.308-2.31-0.308-3.85s0.102-2.816 0.308-3.828c0.22-1.027 0.534-1.841 0.946-2.442 0.41-0.601 0.902-1.027 1.474-1.276 0.586-0.249 1.254-0.374 2.002-0.374zM283.938 22.9c0.352 0 0.696-0.095 1.034-0.286 0.336-0.191 0.63-0.535 0.88-1.034 0.248-0.499 0.446-1.173 0.594-2.024 0.16-0.851 0.242-1.936 0.242-3.256s-0.082-2.405-0.242-3.256c-0.148-0.851-0.346-1.525-0.594-2.024-0.25-0.499-0.544-0.843-0.88-1.034-0.338-0.191-0.682-0.286-1.034-0.286s-0.698 0.095-1.034 0.286c-0.338 0.191-0.632 0.535-0.88 1.034-0.25 0.499-0.456 1.173-0.616 2.024-0.148 0.851-0.22 1.936-0.22 3.256s0.072 2.405 0.22 3.256c0.16 0.851 0.366 1.525 0.616 2.024 0.248 0.499 0.542 0.843 0.88 1.034 0.336 0.191 0.682 0.286 1.034 0.286zM297.474 15.794c0.88 0.249 1.502 0.733 1.87 1.452 0.366 0.719 0.55 1.577 0.55 2.574 0 0.777-0.088 1.445-0.264 2.002-0.176 0.543-0.462 0.997-0.858 1.364-0.396 0.352-0.918 0.616-1.562 0.792-0.646 0.161-1.438 0.242-2.376 0.242-0.66 0-1.276-0.037-1.848-0.11-0.558-0.059-1.116-0.169-1.672-0.33v-14.96c0.556-0.161 1.114-0.271 1.672-0.33 0.572-0.073 1.188-0.11 1.848-0.11 1.554 0 2.676 0.337 3.366 1.012 0.688 0.66 1.034 1.679 1.034 3.058 0 0.66-0.132 1.276-0.396 1.848-0.25 0.572-0.704 1.041-1.364 1.408v0.088zM293.294 16.63v6.16h1.54c1.1 0 1.884-0.227 2.354-0.682 0.484-0.469 0.726-1.232 0.726-2.288 0-1.159-0.242-1.98-0.726-2.464-0.47-0.484-1.254-0.726-2.354-0.726h-1.54zM294.614 15.2c1.76 0 2.64-0.917 2.64-2.75 0-1.76-0.88-2.64-2.64-2.64h-1.32v5.39h1.32z"></path>
</symbol>
<symbol id="icon-user" viewBox="0 0 30 32">
<title>user</title>
<path fill="none" stroke="#1ab0ce" style="stroke: var(--color13, #1ab0ce)" stroke-linejoin="round" stroke-linecap="round" stroke-miterlimit="4" stroke-width="2.1333" d="M26.785 29.867v-3.082c0-3.404-2.759-6.163-6.163-6.163h-12.326c-3.404 0-6.163 2.759-6.163 6.163v3.082"></path>
<path fill="none" stroke="#1ab0ce" style="stroke: var(--color13, #1ab0ce)" stroke-linejoin="round" stroke-linecap="round" stroke-miterlimit="4" stroke-width="2.1333" d="M14.459 14.459c3.404 0 6.163-2.759 6.163-6.163s-2.759-6.163-6.163-6.163c-3.404 0-6.163 2.759-6.163 6.163s2.759 6.163 6.163 6.163z"></path>
</symbol>
</defs>
</svg>
